<svg width="99" height="34" viewBox="0 0 99 34" fill="none" xmlns="http://www.w3.org/2000/svg">
<g clip-path="url(#clip0_1_117)">
<path d="M0.705208 0V26.3631L4.23123 26.3762V13.8223H12.7073V10.5008H4.21767V3.30846H15.2704V0H0.705208ZM21.5901 5.36154C22.2016 5.36154 22.788 5.12732 23.2204 4.71041C23.6527 4.29351 23.8956 3.72806 23.8956 3.13846C23.8956 2.54886 23.6527 1.98342 23.2204 1.56651C22.788 1.1496 22.2016 0.915385 21.5901 0.915385C20.9787 0.915385 20.3923 1.1496 19.9599 1.56651C19.5276 1.98342 19.2847 2.54886 19.2847 3.13846C19.2847 3.72806 19.5276 4.29351 19.9599 4.71041C20.3923 5.12732 20.9787 5.36154 21.5901 5.36154V5.36154ZM19.8136 8.67V26.3762H23.3396V8.67H19.8136V8.67Z" fill="black"/>
<path fill-rule="evenodd" clip-rule="evenodd" d="M36.3723 8.15991C31.7071 8.15991 28.4523 11.9653 28.4523 16.4899C28.4523 21.0145 31.7071 24.8199 36.3723 24.8199C38.5151 24.8199 40.2781 24.0353 41.5664 22.7276V25.0815C41.5754 25.7848 41.4397 26.4828 41.1672 27.1353C40.8947 27.7877 40.4907 28.3816 39.9787 28.8826C39.4667 29.3836 38.8568 29.7817 38.1843 30.0541C37.5117 30.3264 36.7899 30.4675 36.0604 30.4691C34.9348 30.4691 33.8227 30.0507 32.9412 29.4491L31.1782 32.3915C32.5415 33.2412 34.1173 33.7203 35.7394 33.7784C37.3615 33.8365 38.9699 33.4713 40.3947 32.7214C41.8195 31.9715 43.008 30.8647 43.8349 29.5177C44.6617 28.1708 45.0962 26.6336 45.0925 25.0684V8.68299H41.5664V10.2653C40.2781 8.9576 38.5151 8.17299 36.3723 8.17299V8.15991ZM31.9648 16.4899C31.9648 13.6784 34.1889 11.4684 36.7656 11.4684C39.3423 11.4684 41.5529 13.6915 41.5529 16.4899C41.5529 19.3015 39.3288 21.4984 36.7656 21.4984C34.1889 21.4984 31.9648 19.3015 31.9648 16.4899V16.4899Z" fill="black"/>
<path d="M57.759 11.4684C56.7506 11.4855 55.7897 11.8848 55.0842 12.5798C54.3786 13.2748 53.9852 14.2097 53.9889 15.1822V26.3761H50.4629V8.6699H53.9889V10.2914C54.5164 9.61725 55.2017 9.07277 55.9888 8.70235C56.776 8.33194 57.6427 8.14607 58.5185 8.1599C60.9867 8.1599 62.8853 9.33682 63.9703 11.1414C64.5755 10.2368 65.404 9.4909 66.3814 8.97059C67.3588 8.45027 68.4548 8.17173 69.5712 8.1599C73.5719 8.1599 76.0808 11.2722 76.0808 15.1299V26.3761H72.5819V15.1691C72.5856 14.1966 72.1922 13.2617 71.4867 12.5667C70.7811 11.8717 69.8202 11.4725 68.8118 11.4553C67.8033 11.4725 66.8424 11.8717 66.1369 12.5667C65.4314 13.2617 65.0379 14.1966 65.0416 15.1691V26.363H61.5156V15.1691C61.5194 14.1988 61.1278 13.2659 60.4252 12.5712C59.7226 11.8766 58.7651 11.4758 57.759 11.4553V11.4684Z" fill="black"/>
<path fill-rule="evenodd" clip-rule="evenodd" d="M94.8366 10.684C94.0359 9.8789 93.0733 9.23983 92.0076 8.80587C90.942 8.37191 89.7957 8.15217 88.6389 8.16012C83.4041 8.16012 79.6882 12.4232 79.6882 17.5232C79.6882 22.6232 83.4041 26.8863 88.6389 26.8863C89.7953 26.8919 90.9409 26.6712 92.0062 26.2373C93.0715 25.8035 94.0344 25.1657 94.8366 24.3624V26.3763H98.349V8.67012H94.823V10.684H94.8366ZM83.2007 17.5232C83.2007 14.1494 85.8859 11.4686 89.0186 11.4686C92.1378 11.4686 94.8366 14.1494 94.8366 17.5232C94.8366 20.897 92.1514 23.5647 89.0186 23.5647C85.8995 23.5647 83.2007 20.897 83.2007 17.5232V17.5232Z" fill="black"/>
</g>
<defs>
<clipPath id="clip0_1_117">
<rect width="99" height="34" fill="white"/>
</clipPath>
</defs>
</svg>
