<svg width="77" height="77" viewBox="0 0 77 77" fill="none" xmlns="http://www.w3.org/2000/svg">
<path d="M14 38.5V21.9C14.0259 20.8362 14.2612 19.7879 14.6925 18.8151C15.1237 17.8422 15.7424 16.9639 16.5132 16.2302C17.2839 15.4966 18.1917 14.922 19.1847 14.5393C20.1776 14.1567 21.2362 13.9734 22.3 14H54.7C55.7975 13.9725 56.889 14.1684 57.9085 14.5758C58.9279 14.9832 59.8538 15.5936 60.6301 16.3699C61.4064 17.1461 62.0167 18.0721 62.4241 19.0915C62.8315 20.1109 63.0275 21.2025 63 22.3V55C62.9871 56.0723 62.7614 57.1313 62.336 58.1157C61.9105 59.1001 61.2939 59.9902 60.5218 60.7344C59.7497 61.4787 58.8375 62.0621 57.8381 62.451C56.8387 62.8399 55.7721 63.0265 54.7 63H22.3C20.1422 63.0269 18.0607 62.2022 16.507 60.7046C14.9532 59.207 14.0525 57.1573 14 55V38.6V38.5ZM22.9 38.5V51.3C22.9 53.1 24.2 54.1 25.7 54.1H51.4C53 54.1 54.1 53.1 54.1 51.4C54.1023 42.5666 54.1023 33.7333 54.1 24.9C53.8 23.7 52.7 22.9 51.4 22.9H25.4C24.4 22.9 23.5 23.5 23.1 24.5L22.9 25.8V38.5ZM31.9 43.5C31.9 44.5 32.4 45.2 33.4 45.2H43.5C44.5 45.2 45.2 44.6 45.2 43.5V33.5C45.2 32.4 44.6 31.8 43.5 31.8H33.5C32.4 31.8 31.8 32.4 31.8 33.5V43.5H31.9Z" fill="white"/>
</svg>
