<svg width="77" height="77" viewBox="0 0 77 77" fill="none" xmlns="http://www.w3.org/2000/svg">
<path d="M29.4 59.1C33.3865 59.1266 37.3385 58.361 41.0267 56.8477C44.7148 55.3344 48.0657 53.1035 50.8846 50.2846C53.7035 47.4657 55.9344 44.1149 57.4477 40.4267C58.961 36.7385 59.7266 32.7865 59.7 28.8V27.4C61.7 25.9 63.6 24 65 21.9C63 22.7 61 23.3 58.9 23.6C61.1 22.2 62.8 20.1 63.6 17.6C61.5 18.9 59.2 19.8 56.8 20.2C55.1846 18.4858 53.0487 17.3526 50.7235 16.9761C48.3984 16.5995 46.014 17.0007 43.9401 18.1174C41.8663 19.2341 40.2188 21.0039 39.2533 23.1524C38.2878 25.3008 38.0581 27.7078 38.6 30C34.3523 29.7818 30.1981 28.6718 26.4076 26.7421C22.6172 24.8125 19.2755 22.1064 16.6 18.8C15.2331 21.1669 14.8238 23.9671 15.456 26.6262C16.0882 29.2853 17.7141 31.6016 20 33.1C18.3 33.1 16.7 32.6 15.2 31.7V31.9C15.2163 34.3435 16.0685 36.7078 17.6149 38.5999C19.1612 40.4919 21.3086 41.7976 23.7 42.3C22.2 42.7 20.5 42.8 18.9 42.5C19.5876 44.6219 20.9211 46.4758 22.7141 47.8026C24.507 49.1294 26.6698 49.8627 28.9 49.9C26.6727 51.649 24.1204 52.9385 21.391 53.6938C18.6617 54.4491 15.8096 54.6551 13 54.3C17.8906 57.4455 23.5852 59.1122 29.4 59.1Z" fill="white"/>
</svg>
