<svg width="77" height="77" viewBox="0 0 77 77" fill="none" xmlns="http://www.w3.org/2000/svg">
<path d="M22.5 50.5H18.9V49.5V48.4C18.8 48.3 18.7 48.4 18.7 48.4L18.1 48.9C16.9411 49.9278 15.5234 50.6194 14 50.9C12.1 51.1 10.3 50.9 8.5 50.2C6.94415 49.5463 5.60344 48.4683 4.63092 47.0891C3.65841 45.7099 3.09326 44.085 3 42.4V41.2V26.4V26.1L3.3 26H6.6V41.1L6.9 42.9C7.23321 44.2755 8.04195 45.489 9.1833 46.326C10.3246 47.1629 11.7251 47.5694 13.1372 47.4737C14.5493 47.378 15.8821 46.7861 16.9 45.8028C17.9179 44.8195 18.5555 43.5079 18.7 42.1V41.1V26.4V26H22.4V50.5H22.5ZM28.7 48.3V50.6H25.2V50.4V50.2V26.4V26H28.7V34.9L29 34.7C29.8916 33.8605 30.9468 33.2141 32.0997 32.8011C33.2525 32.3882 34.4782 32.2176 35.7 32.3C37 32.3 38.3 32.7 39.5 33.4C40.7348 34.0306 41.8091 34.9351 42.641 36.0442C43.4729 37.1534 44.0403 38.438 44.3 39.8C44.5456 41.0161 44.5455 42.269 44.2996 43.485C44.0537 44.701 43.5669 45.8555 42.868 46.8805C42.1692 47.9055 41.2723 48.7804 40.2301 49.4535C39.188 50.1266 38.0217 50.5844 36.8 50.8C36.1 51 35.3 51 34.6 51C32.3636 50.8745 30.2568 49.9104 28.7 48.3ZM34.8 47.8C35.8 47.8 36.6 47.6 37.4 47.3C39.9 46.1 41.4 43.3 40.9 40.5C40.7366 39.5359 40.3438 38.6253 39.7548 37.8448C39.1658 37.0643 38.3978 36.4368 37.5155 36.0153C36.6332 35.5937 35.6625 35.3905 34.6852 35.4226C33.7079 35.4548 32.7527 35.7214 31.9 36.2C30.71 36.8712 29.7751 37.9167 29.2404 39.1739C28.7058 40.4312 28.6014 41.8298 28.9435 43.1525C29.2856 44.4752 30.055 45.6479 31.1321 46.4883C32.2092 47.3288 33.5338 47.7899 34.9 47.8H34.8ZM64 42.7H49.5V42.9C49.7359 44.2954 50.4573 45.5625 51.537 46.4774C52.6166 47.3923 53.9848 47.8962 55.4 47.9C56.3638 47.9235 57.3194 47.7183 58.1885 47.3011C59.0577 46.8839 59.8155 46.2667 60.4 45.5C60.4 45.4 60.4 45.3 60.6 45.2L63.1 47.2C62.0972 48.5463 60.7522 49.5996 59.2046 50.2502C57.6571 50.9009 55.9636 51.1253 54.3 50.9C53.0359 50.7912 51.809 50.4163 50.7 49.8C49.2094 48.9539 47.9816 47.7123 47.1522 46.2123C46.3228 44.7123 45.924 43.0123 46 41.3C46.0446 39.5265 46.5955 37.8027 47.5877 36.3321C48.5799 34.8614 49.9721 33.7053 51.6 33C53.7471 32.154 56.1287 32.1185 58.3 32.9C60.7 33.8 62.3 35.4 63.3 37.7C63.7 38.6 63.9 39.5 64 40.4V42.7ZM60.4 40V39.8L60 38.7C59.6689 37.9829 59.1873 37.3456 58.5879 36.8313C57.9884 36.317 57.2853 35.9379 56.5262 35.7196C55.7672 35.5014 54.97 35.4492 54.189 35.5666C53.4079 35.684 52.6614 35.9683 52 36.4C50.7 37.3 50 38.4 49.6 39.8V40H60.5H60.4ZM69.5 50.5H66V50.4V32.7H69.4L69.5 32.9V34.7L69.7 34.5C70.129 33.8887 70.6974 33.3885 71.3582 33.0406C72.0191 32.6928 72.7533 32.5075 73.5 32.5H75V35.7L74.8 35.8H73.5C73 35.8 72.5 35.8 72.1 36.1C71.3 36.4 70.7 36.9 70.2 37.7C69.8745 38.2867 69.6705 38.9328 69.6 39.6V50.5H69.5Z" fill="white"/>
</svg>
